<?xml version="1.0" encoding="UTF-8" standalone="no"?>
<svg
   xmlns:dc="http://purl.org/dc/elements/1.1/"
   xmlns:cc="http://creativecommons.org/ns#"
   xmlns:rdf="http://www.w3.org/1999/02/22-rdf-syntax-ns#"
   xmlns:svg="http://www.w3.org/2000/svg"
   xmlns="http://www.w3.org/2000/svg"
   xmlns:sodipodi="http://sodipodi.sourceforge.net/DTD/sodipodi-0.dtd"
   xmlns:inkscape="http://www.inkscape.org/namespaces/inkscape"
   stroke-miterlimit="10"
   font-weight="normal"
   font-style="normal"
   font-size="12"
   id="svg4187"
   version="1.1"
   inkscape:version="0.91 r13725"
   sodipodi:docname="utf-check.svg"
   width="210mm"
   height="297mm"
   style="font-style:normal;font-weight:normal;font-size:12px;font-family:Dialog;color-interpolation:auto;fill:#000000;fill-opacity:1;stroke:#000000;stroke-width:1;stroke-linecap:square;stroke-linejoin:miter;stroke-miterlimit:10;stroke-dasharray:none;stroke-dashoffset:0;stroke-opacity:1;color-rendering:auto;image-rendering:auto;shape-rendering:auto;text-rendering:auto">
  <metadata
     id="metadata4198">
    <rdf:RDF>
      <cc:Work
         rdf:about="">
        <dc:format>image/svg+xml</dc:format>
        <dc:type
           rdf:resource="http://purl.org/dc/dcmitype/StillImage" />
        <dc:title></dc:title>
      </cc:Work>
    </rdf:RDF>
  </metadata>
  <sodipodi:namedview
     pagecolor="#ffffff"
     bordercolor="#666666"
     borderopacity="1"
     objecttolerance="10"
     gridtolerance="10"
     guidetolerance="10"
     inkscape:pageopacity="0"
     inkscape:pageshadow="2"
     inkscape:window-width="1440"
     inkscape:window-height="830"
     id="namedview4196"
     showgrid="false"
     units="mm"
     inkscape:zoom="0.13876971"
     inkscape:cx="50"
     inkscape:cy="-198.67205"
     inkscape:window-x="0"
     inkscape:window-y="0"
     inkscape:window-maximized="1"
     inkscape:current-layer="svg4187" />
  <!--Unicode Character 'CHECK MARK' (U+2713)-->
  <defs
     id="genericDefs" />
  <g
     id="g4190"
     transform="matrix(4.4605403,0,0,4.4605403,-91.054131,-753.35317)">
    <g
       id="g4192">
      <path
         d="m 67.3594,347.3438 q 12.9375,-29.5313 27.7734,-56.461 14.836,-26.9297 30.586,-49.7109 18.5624,-26.7188 29.25,-38.5313 6.8906,-7.5937 12.9374,-12.5156 3.5157,-2.8125 11.1094,-4.2188 18.4219,-3.375 25.7344,-3.375 3.2344,0 3.2344,2.25 0,2.1094 -3.2344,5.0626 -28.125,25.0312 -58.9922,71.5781 -30.8672,46.5469 -52.1016,98.8593 -8.0156,19.5469 -11.1796,23.9766 -3.1641,4.4297 -19.7578,4.4297 -10.8282,0 -13.5704,-2.1094 -2.7422,-2.1093 -9.914,-13.3593 -12.375,-18.7032 -26.5782,-33.75 -7.4531,-7.875 -7.4531,-12.0938 0,-5.9062 8.2969,-11.6016 8.2969,-5.6953 13.6406,-5.6953 7.4532,0 17.9297,8.3672 10.4766,8.3672 22.2891,28.8985 z"
         id="path4194"
         inkscape:connector-curvature="0"
         style="stroke:none" />
    </g>
  </g>
</svg>
