<?xml version="1.0" encoding="UTF-8" standalone="no"?>
<!-- Created with Inkscape (http://www.inkscape.org/) -->

<svg
   xmlns:dc="http://purl.org/dc/elements/1.1/"
   xmlns:cc="http://creativecommons.org/ns#"
   xmlns:rdf="http://www.w3.org/1999/02/22-rdf-syntax-ns#"
   xmlns:svg="http://www.w3.org/2000/svg"
   xmlns="http://www.w3.org/2000/svg"
   xmlns:sodipodi="http://sodipodi.sourceforge.net/DTD/sodipodi-0.dtd"
   xmlns:inkscape="http://www.inkscape.org/namespaces/inkscape"
   width="210mm"
   height="297mm"
   viewBox="0 0 744.09448819 1052.3622047"
   id="svg2"
   version="1.1"
   inkscape:version="0.91 r13725"
   sodipodi:docname="utf-cross.svg">
  <defs
     id="defs4" />
  <sodipodi:namedview
     id="base"
     pagecolor="#ffffff"
     bordercolor="#666666"
     borderopacity="1.0"
     inkscape:pageopacity="0.0"
     inkscape:pageshadow="2"
     inkscape:zoom="0.35"
     inkscape:cx="-140.71429"
     inkscape:cy="520"
     inkscape:document-units="px"
     inkscape:current-layer="layer1"
     showgrid="false"
     inkscape:window-width="1440"
     inkscape:window-height="830"
     inkscape:window-x="0"
     inkscape:window-y="0"
     inkscape:window-maximized="1" />
  <metadata
     id="metadata7">
    <rdf:RDF>
      <cc:Work
         rdf:about="">
        <dc:format>image/svg+xml</dc:format>
        <dc:type
           rdf:resource="http://purl.org/dc/dcmitype/StillImage" />
        <dc:title></dc:title>
      </cc:Work>
    </rdf:RDF>
  </metadata>
  <g
     inkscape:label="Ebene 1"
     inkscape:groupmode="layer"
     id="layer1">
    <path
       style="fill:#000000"
       d="m 62.363026,985.17964 c -22.52474,-29.09832 -28.65944,-51.33334 -21.47144,-77.82229 2.2503,-8.29264 1.7486,-13.55439 -2.1071,-22.09995 -4.8514,-10.75208 -4.7486,-11.92942 2.4852,-28.46725 28.9933,-66.2841 119.242464,-201.33673 241.411364,-361.258 12.39254,-16.22204 22.53189,-30.04091 22.53189,-30.70854 0,-1.31284 -6.86744,-21.43216 -24.04287,-70.43762 -20.58205,-58.72537 -72.30038,-220.55032 -72.30038,-226.2255 0,-8.70661 15.67284,-32.27028 24.19266,-36.37299 6.1792,-2.97559 9.50678,-2.47119 17.79556,2.6975 5.83433,3.63814 11.35961,5.12678 12.91751,3.48026 1.4973,-1.58246 5.8367,-3.37952 9.64309,-3.99347 3.80643,-0.61394 10.84571,-5.09049 15.64285,-9.94788 4.79715,-4.85739 10.84919,-8.83162 13.44899,-8.83162 12.67107,0 31.12801,33.34811 87.18079,157.51878 11.78922,26.11601 22.17443,48.26517 23.07825,49.22041 0.90379,0.95524 3.99508,-1.37721 6.86946,-5.18318 2.87442,-3.806 19.91076,-25.0511 37.85858,-47.21133 17.94781,-22.16023 37.13342,-46.14816 42.63469,-53.30655 50.25966,-65.39912 108.51249,-130.599818 116.68292,-130.599818 5.37067,0 22.84255,8.80358 33.79684,17.029238 4.18814,3.14492 7.49122,1.64617 18.64708,-8.460978 l 13.55736,-12.28289 9.97746,12.53237 c 5.4876,6.892798 12.325,18.033018 15.1943,24.756028 l 5.2168,12.22367 -17.7044,23.90727 c -76.73617,103.62143 -85.41722,115.50237 -152.22722,208.34003 -32.30648,44.89234 -59.77074,83.10053 -61.03168,84.90707 -2.44178,3.4983 -0.35113,8.69147 34.37984,85.40043 35.03019,77.36987 86.94481,199.19847 86.94481,204.03433 0,2.41358 -3.59966,6.88111 -7.99926,9.9278 -5.23762,3.62706 -7.4863,7.61273 -6.51339,11.5447 1.47135,5.94653 -13.37512,22.48287 -20.18528,22.48287 -1.95449,0 -2.33306,5.06395 -1.00138,13.3946 1.81386,11.34689 1.02419,14.65856 -5.16555,21.66221 -8.7825,9.93736 -21.83629,17.4973 -30.21269,17.4973 -13.89076,0 -68.58511,-79.82039 -140.32015,-204.78181 -15.3577,-26.75287 -17.02192,-28.5739 -21.0124,-22.99243 -47.30189,66.16103 -140.38125,216.5795 -199.19172,321.89852 -30.90064,55.33751 -31.7258,56.44431 -45.88071,61.54171 -7.92777,2.8549 -23.01037,6.1216 -33.516884,7.2593 l -19.10275,2.0684 -11.10104,-14.3407 z"
       id="path4201"
       inkscape:connector-curvature="0" />
  </g>
</svg>
